P2
#Created by Fabio Tondin
3 2
255
102 112 
127 132 
147 159 
