P2
# Created by IrfanView
3 2 
255
102 103 
127 128 
147 148 